# xmcd CD database file
#
# Track frame offsets:
#	150
#	32260
#	58441
#	60815
#	85381
#	111220
#	132668
#	136675
#	162353
#	187508
#
# Disc length: 2801 seconds
#
# Revision: 0
# Processed by: cddbd v1.5.1PL0 Copyright (c) Steve Scherf et al.
# Submitted via: CDex 1.51
#
DISCID=7c0aef0a
DTITLE=Levon Ichkhanian - "travels"
DYEAR=2002
DGENRE=Jazz
TTITLE0=Song for a Violin
TTITLE1=Bobby-Jo
TTITLE2=Angel Eyes Interlude
TTITLE3=Angel Eyes
TTITLE4=Cuica
TTITLE5=One World
TTITLE6=Bansuri Interlude
TTITLE7=We'll Meet Again
TTITLE8=Eduardo's Cafe
TTITLE9=The Present
EXTD=YEAR: 2002
EXTT0=
EXTT1=
EXTT2=
EXTT3=
EXTT4=
EXTT5=
EXTT6=
EXTT7=
EXTT8=
EXTT9=
PLAYORDER=
